<?xml version="1.0" encoding="UTF-8" standalone="no"?>
<!-- Generator: Adobe Illustrator 15.0.0, SVG Export Plug-In . SVG Version: 6.00 Build 0)  -->

<svg
   xmlns:dc="http://purl.org/dc/elements/1.1/"
   xmlns:cc="http://creativecommons.org/ns#"
   xmlns:rdf="http://www.w3.org/1999/02/22-rdf-syntax-ns#"
   xmlns:svg="http://www.w3.org/2000/svg"
   xmlns="http://www.w3.org/2000/svg"
   xmlns:sodipodi="http://sodipodi.sourceforge.net/DTD/sodipodi-0.dtd"
   xmlns:inkscape="http://www.inkscape.org/namespaces/inkscape"
   version="1.1"
   id="Layer_1"
   x="0px"
   y="0px"
   width="64"
   height="64"
   viewBox="0 0 64 64"
   xml:space="preserve"
   inkscape:version="0.48.3.1 r9886"
   sodipodi:docname="export.svg"><metadata
   id="metadata11"><rdf:RDF><cc:Work
       rdf:about=""><dc:format>image/svg+xml</dc:format><dc:type
         rdf:resource="http://purl.org/dc/dcmitype/StillImage" /></cc:Work></rdf:RDF></metadata><defs
   id="defs9" /><sodipodi:namedview
   pagecolor="#ffffff"
   bordercolor="#666666"
   borderopacity="1"
   objecttolerance="10"
   gridtolerance="10"
   guidetolerance="10"
   inkscape:pageopacity="0"
   inkscape:pageshadow="2"
   inkscape:window-width="1366"
   inkscape:window-height="711"
   id="namedview7"
   showgrid="false"
   fit-margin-top="0"
   fit-margin-left="0"
   fit-margin-right="0"
   fit-margin-bottom="0"
   inkscape:zoom="3.3712566"
   inkscape:cx="36.844928"
   inkscape:cy="25.59658"
   inkscape:window-x="0"
   inkscape:window-y="27"
   inkscape:window-maximized="1"
   inkscape:current-layer="Layer_1" />


<polygon
   transform="matrix(0.58546808,0,0,0.58546808,-148.42768,-196.10074)"
   points="306.339,410.123 335.42,381.042 349.089,394.711 349.089,351.015 305.393,351.015 319.062,364.685 289.981,393.765 "
   id="polygon3" /><path
   inkscape:connector-curvature="0"
   d="m 38.556194,42.176566 v 5.670844 c 0,1.8009 -1.464841,3.26574 -3.265741,3.26574 H 16.499855 c -1.800899,0 -3.265741,-1.46484 -3.265741,-3.26574 V 29.056812 c 0,-1.800899 1.464842,-3.265741 3.265741,-3.265741 h 7.695392 l 5.122846,-5.122845 H 12.698411 c -2.529223,0 -4.5865577,2.05792 -4.5865577,4.586557 v 26.393486 c 0,2.529222 2.0579207,4.586557 4.5865577,4.586557 h 26.393485 c 2.529223,0 4.586558,-2.057921 4.586558,-4.586557 V 37.053135 l -5.12226,5.123431 z"
   id="path5" /></svg>