<?xml version="1.0" encoding="UTF-8" standalone="no"?>
<!-- Created with Inkscape (http://www.inkscape.org/) -->

<svg
   xmlns:dc="http://purl.org/dc/elements/1.1/"
   xmlns:cc="http://creativecommons.org/ns#"
   xmlns:rdf="http://www.w3.org/1999/02/22-rdf-syntax-ns#"
   xmlns:svg="http://www.w3.org/2000/svg"
   xmlns="http://www.w3.org/2000/svg"
   xmlns:sodipodi="http://sodipodi.sourceforge.net/DTD/sodipodi-0.dtd"
   xmlns:inkscape="http://www.inkscape.org/namespaces/inkscape"
   width="64px"
   height="64px"
   id="svg3008"
   version="1.1"
   inkscape:version="0.48.3.1 r9886"
   sodipodi:docname="新建文档 3">
  <defs
     id="defs3010" />
  <sodipodi:namedview
     id="base"
     pagecolor="#ffffff"
     bordercolor="#666666"
     borderopacity="1.0"
     inkscape:pageopacity="0.0"
     inkscape:pageshadow="2"
     inkscape:zoom="5.5"
     inkscape:cx="32"
     inkscape:cy="32"
     inkscape:current-layer="layer1"
     showgrid="true"
     inkscape:document-units="px"
     inkscape:grid-bbox="true"
     inkscape:window-width="1366"
     inkscape:window-height="711"
     inkscape:window-x="0"
     inkscape:window-y="27"
     inkscape:window-maximized="1" />
  <metadata
     id="metadata3013">
    <rdf:RDF>
      <cc:Work
         rdf:about="">
        <dc:format>image/svg+xml</dc:format>
        <dc:type
           rdf:resource="http://purl.org/dc/dcmitype/StillImage" />
        <dc:title></dc:title>
      </cc:Work>
    </rdf:RDF>
  </metadata>
  <g
     id="layer1"
     inkscape:label="Layer 1"
     inkscape:groupmode="layer">
    <polygon
       transform="matrix(0.55121309,0,0,0.55121309,-132.62665,-189.19838)"
       points="281.832,418.522 325.528,418.522 311.859,404.852 340.94,375.772 324.582,359.414 295.5,388.495 281.832,374.825 "
       id="polygon3" />
    <path
       inkscape:connector-curvature="0"
       d="m 36.664671,45.354908 v 2.56314 c 0,1.695531 -1.379135,3.074667 -3.074666,3.074667 H 15.89882 c -1.695531,0 -3.074667,-1.379136 -3.074667,-3.074667 V 30.226864 c 0,-1.695532 1.379136,-3.074667 3.074667,-3.074667 h 2.964975 v -4.823114 h -6.544002 c -2.3812392,0 -4.318202,1.937514 -4.318202,4.318203 v 24.849238 c 0,2.38124 1.9375137,4.318203 4.318202,4.318203 h 24.849238 c 2.381241,0 4.318203,-1.937514 4.318203,-4.318203 v -6.142719 h -4.822563 z"
       id="path5" />
  </g>
</svg>
