<?xml version="1.0" encoding="iso-8859-1"?>
<!-- Generator: Adobe Illustrator 13.0.2, SVG Export Plug-In . SVG Version: 6.00 Build 14948)  -->
<!DOCTYPE svg PUBLIC "-//W3C//DTD SVG 1.1//EN" "http://www.w3.org/Graphics/SVG/1.1/DTD/svg11.dtd">
<svg version="1.1" id="Layer_1" xmlns="http://www.w3.org/2000/svg" xmlns:xlink="http://www.w3.org/1999/xlink" x="0px" y="0px"
	 width="123.547px" height="123.539px" viewBox="-0.258 -0.548 123.547 123.539"
	 style="enable-background:new -0.258 -0.548 123.547 123.539;" xml:space="preserve">
<g>
	<rect x="38.555" y="18.48" style="fill:#000000;" width="15.688" height="11.227"/>
	<path style="fill:#000000;" d="M71.938,66.918c-1.492,0-2.68-1.203-2.68-2.688V33.223h23.695l9.992,42.312l-0.055,2.734v18.695
		c0,1.445-1.172,2.617-2.609,2.617H77.234c-1.445,0-2.617-1.172-2.617-2.617V66.918h-2.484"/>
	<path style="fill:#000000;" d="M51.484,66.988c1.484,0,2.688-1.195,2.688-2.688V33.27H30.5L20.492,75.582l0.047,2.758v18.703
		c0,1.438,1.172,2.609,2.609,2.609h23.039c1.461,0,2.633-1.172,2.633-2.609V66.988h2.469"/>
	<rect x="57.633" y="33.27" style="fill:#000000;" width="8.133" height="28.812"/>
	<rect x="69.258" y="18.48" style="fill:#000000;" width="15.688" height="11.227"/>
</g>
</svg>
