<?xml version="1.0" encoding="UTF-8" standalone="no"?>
<!DOCTYPE svg PUBLIC "-//W3C//DTD SVG 20010904//EN"
              "http://www.w3.org/TR/2001/REC-SVG-20010904/DTD/svg10.dtd">

<svg xmlns="http://www.w3.org/2000/svg"
     width="5.68938in" height="5.68938in"
     viewBox="0 0 512 512">
  <path id="path4"
        fill="black"
        d="M 452.81,131.58
           C 442.26,147.37 428.91,161.23 413.53,172.33
             413.68,175.71 413.76,179.10 413.76,182.52
             413.76,286.54 334.59,406.48 189.80,406.48
             145.35,406.48 103.97,393.45 69.13,371.12
             75.29,371.84 81.56,372.22 87.91,372.22
             124.79,372.22 158.73,359.63 185.67,338.52
             151.23,337.88 122.16,315.12 112.14,283.85
             116.95,284.77 121.88,285.27 126.95,285.27
             134.13,285.27 141.08,284.30 147.69,282.50
             111.68,275.27 84.54,243.46 84.54,205.32
             84.54,204.99 84.54,204.66 84.55,204.33
             95.16,210.22 107.30,213.77 120.20,214.17
             99.08,200.06 85.19,175.97 85.19,148.66
             85.19,134.23 89.07,120.71 95.84,109.08
             134.67,156.71 192.67,188.04 258.09,191.33
             256.75,185.57 256.05,179.56 256.05,173.39
             256.05,129.92 291.30,94.67 334.77,94.67
             357.41,94.67 377.87,104.23 392.22,119.53
             410.16,116.00 427.00,109.45 442.21,100.43
             436.33,118.81 423.85,134.24 407.60,143.98
             423.52,142.08 438.70,137.85 452.81,131.58" />
</svg>
